<svg width="303" height="16" viewBox="0 0 303 16" fill="none" xmlns="http://www.w3.org/2000/svg">
<path d="M94.5418 3.51562V12H93.698V4.38281H93.6512L91.6473 5.70703V4.85156L93.6746 3.51562H94.5418ZM99.2091 12.1172C97.3927 12.1172 96.338 10.5117 96.338 7.75781C96.338 5.01562 97.4045 3.39844 99.2091 3.39844C101.002 3.39844 102.069 5.01562 102.069 7.75781C102.069 10.5117 101.014 12.1172 99.2091 12.1172ZM99.2091 11.3672C100.498 11.3672 101.26 10.0547 101.26 7.75781C101.26 5.46094 100.486 4.13672 99.2091 4.13672C97.9201 4.13672 97.1584 5.46094 97.1584 7.75781C97.1584 10.0547 97.9201 11.3672 99.2091 11.3672ZM112.267 10.9336V11.5664H102.798V10.9336H107.146V8.44922H107.873V10.9336H112.267ZM107.884 4.96875C107.884 6.72656 109.794 7.91016 111.623 8.23828L111.33 8.8125C109.753 8.50781 108.142 7.6582 107.521 6.25781C106.888 7.6582 105.277 8.50781 103.701 8.8125L103.396 8.23828C105.236 7.91016 107.134 6.72656 107.146 4.96875V4.92188H103.701V4.28906H107.146V2.82422H107.873V4.28906H111.33V4.92188H107.884V4.96875ZM124.203 3.79688V4.41797H115.848V3.79688H119.68V2.49609H120.418V3.79688H124.203ZM124.813 9.26953V9.90234H120.418V12.9258H119.68V9.90234H115.344V9.26953H124.813ZM120.043 5.07422C122.117 5.07422 123.36 5.68359 123.36 6.78516C123.36 7.86328 122.117 8.48438 120.043 8.48438C117.969 8.48438 116.727 7.86328 116.739 6.78516C116.727 5.68359 117.969 5.07422 120.043 5.07422ZM120.043 5.64844C118.461 5.64844 117.489 6.08203 117.5 6.78516C117.489 7.47656 118.461 7.91016 120.043 7.89844C121.625 7.91016 122.586 7.47656 122.598 6.78516C122.586 6.08203 121.625 5.64844 120.043 5.64844ZM136.702 2.57812V12.9141H135.987V2.57812H136.702ZM134.546 2.87109V12.3633H133.831V7.51172H131.476C130.831 8.71875 129.823 9.79688 128.382 10.6523L127.936 10.1133C130.245 8.74219 131.44 6.74414 131.604 4.54688H128.347V3.91406H132.331C132.331 4.94531 132.149 5.95898 131.757 6.90234H133.831V2.87109H134.546ZM146.397 2.57812V8.50781H145.659V2.57812H146.397ZM146.397 9.09375V12.7617H139.741V9.09375H146.397ZM140.467 9.70312V12.1523H145.67V9.70312H140.467ZM140.842 3.15234C142.401 3.15234 143.514 4.11328 143.514 5.55469C143.514 6.96094 142.401 7.93359 140.842 7.93359C139.284 7.93359 138.159 6.96094 138.17 5.55469C138.159 4.11328 139.284 3.15234 140.842 3.15234ZM140.842 3.78516C139.705 3.78516 138.885 4.52344 138.885 5.55469C138.885 6.5625 139.705 7.30078 140.842 7.30078C141.979 7.30078 142.799 6.5625 142.799 5.55469C142.799 4.52344 141.979 3.78516 140.842 3.78516ZM156.396 2.57812V12.9258H155.658V2.57812H156.396ZM150.935 3.39844C152.459 3.39844 153.549 4.79297 153.549 6.97266C153.549 9.15234 152.459 10.5469 150.935 10.5469C149.4 10.5469 148.322 9.15234 148.322 6.97266C148.322 4.79297 149.4 3.39844 150.935 3.39844ZM150.935 4.05469C149.822 4.05469 149.037 5.25 149.037 6.97266C149.037 8.70703 149.822 9.89062 150.935 9.89062C152.049 9.89062 152.822 8.70703 152.822 6.97266C152.822 5.25 152.049 4.05469 150.935 4.05469ZM165.532 6.23438V7.78125H169.879V8.41406H160.457V7.78125H164.805V6.23438H165.532ZM165.168 9.35156C167.383 9.35156 168.707 9.98438 168.707 11.1211C168.707 12.2578 167.383 12.8789 165.168 12.8789C162.93 12.8789 161.606 12.2578 161.606 11.1211C161.606 9.98438 162.93 9.35156 165.168 9.35156ZM165.168 9.94922C163.422 9.9375 162.356 10.3828 162.356 11.1211C162.356 11.8477 163.422 12.293 165.168 12.2812C166.903 12.293 167.969 11.8477 167.969 11.1211C167.969 10.3828 166.903 9.9375 165.168 9.94922ZM165.625 3.71484C165.625 5.01562 167.606 5.94141 169.317 6.12891L169.036 6.72656C167.43 6.51562 165.725 5.77148 165.168 4.57031C164.6 5.77148 162.907 6.51562 161.301 6.72656L161.02 6.12891C162.719 5.94141 164.711 5.01562 164.711 3.71484V3.67969H161.325V3.07031H169.036V3.67969H165.625V3.71484ZM179.937 10.957V11.5898H170.469V10.957H173.211V8.87109H171.687V5.77734H177.98V3.99609H171.652V3.375H178.707V6.39844H172.414V8.25H178.953V8.87109H177.277V10.957H179.937ZM173.937 10.957H176.551V8.87109H173.937V10.957ZM188.964 2.57812V8.50781H188.226V2.57812H188.964ZM180.515 7.58203C181.417 7.58203 182.478 7.57617 183.573 7.53516V6.31641H181.476V3.10547H186.351V3.72656H182.226V5.71875H186.456V6.31641H184.312V7.5C185.325 7.45898 186.351 7.37695 187.3 7.24219L187.335 7.79297C185.05 8.17969 182.519 8.21484 180.644 8.21484L180.515 7.58203ZM182.964 8.98828V10.1953H188.237V8.98828H188.964V12.7617H182.226V8.98828H182.964ZM182.964 12.1523H188.237V10.793H182.964V12.1523ZM198.952 2.57812V12.9141H198.225V2.57812H198.952ZM191.92 3.59766V9.55078H192.014C193.631 9.55078 195.26 9.42188 197.041 9.04688L197.147 9.69141C195.307 10.0781 193.69 10.207 192.014 10.207H191.194V3.59766H191.92ZM208.459 2.57812V6.75H210.24V7.37109H208.459V12.9258H207.721V2.57812H208.459ZM201.767 9.66797C203.736 9.66797 205.072 9.59766 206.642 9.30469L206.748 9.94922C205.119 10.2422 203.771 10.3125 201.767 10.3125H200.971V3.59766H205.787V4.21875H201.709V9.66797H201.767ZM211.532 12.0586C211.181 12.0586 210.9 11.7773 210.9 11.4375C210.9 11.0859 211.181 10.8047 211.532 10.8047C211.872 10.8047 212.154 11.0859 212.154 11.4375C212.154 11.7773 211.872 12.0586 211.532 12.0586Z" fill="white"/>
<path d="M267 8L302 8" stroke="white" stroke-width="0.5" stroke-linecap="round"/>
<path d="M1 8L36 8" stroke="white" stroke-width="0.5" stroke-linecap="round"/>
</svg>
