<svg width="303" height="16" viewBox="0 0 303 16" fill="none" xmlns="http://www.w3.org/2000/svg">
<path d="M65.2393 7.75781V8.36719H55.8174V7.75781H60.1651V6.44531H57.0245V3.07031H64.0557V3.66797H57.751V5.82422H64.126V6.44531H60.8799V7.75781H65.2393ZM60.5284 9.19922C62.7315 9.19922 64.0674 9.86719 64.0674 11.0391C64.0674 12.2344 62.7315 12.8906 60.5284 12.9023C58.3018 12.8906 56.9659 12.2344 56.9659 11.0391C56.9659 9.86719 58.3018 9.19922 60.5284 9.19922ZM60.5284 9.78516C58.794 9.79688 57.7159 10.2656 57.7159 11.0391C57.7159 11.8242 58.794 12.293 60.5284 12.293C62.2393 12.293 63.3291 11.8242 63.3291 11.0391C63.3291 10.2656 62.2393 9.79688 60.5284 9.78516ZM74.348 2.57812V8.64844H73.6098V5.85938H71.3598V5.23828H73.6098V2.57812H74.348ZM74.348 9.1875V12.7617H67.6566V9.1875H74.348ZM68.3832 9.78516V12.1523H73.6215V9.78516H68.3832ZM69.3207 4.47656C69.3207 5.84766 70.4574 7.14844 71.9223 7.67578L71.5355 8.26172C70.3637 7.82812 69.4086 6.92578 68.9691 5.8125C68.5297 7.06055 67.5102 8.04492 66.2855 8.50781L65.8988 7.92188C67.3754 7.39453 68.5824 6 68.5824 4.47656V3.91406H66.1566V3.28125H71.7113V3.91406H69.3207V4.47656ZM79.2263 5.87109C79.2263 7.54688 80.5388 9.375 81.9685 10.0664L81.5349 10.6523C80.3865 10.0723 79.3377 8.80664 78.8748 7.37109C78.4002 8.92383 77.2752 10.3066 76.1443 10.9102L75.6873 10.3242C77.0935 9.62109 78.4998 7.65234 78.5115 5.87109V4.28906H76.0505V3.65625H81.6404V4.28906H79.2263V5.87109ZM83.7966 2.57812V6.83203H85.5779V7.46484H83.7966V12.9141H83.0584V2.57812H83.7966ZM89.5923 3V4.57031H92.897V3H93.6235V7.5H88.8657V3H89.5923ZM89.5923 6.87891H92.897V5.16797H89.5923V6.87891ZM96.436 2.57812V4.89844H98.0298V5.51953H96.436V7.94531H95.6977V2.57812H96.436ZM96.436 8.46094V10.8633H90.6704V12.1641H96.8345V12.7852H89.9438V10.2891H95.6977V9.07031H89.9204V8.46094H96.436ZM101.408 4.69922C101.408 5.84766 102.275 7.03125 103.599 7.51172L103.201 8.09766C102.176 7.69922 101.42 6.9082 101.056 5.97656C100.681 6.99023 99.8963 7.91016 98.8651 8.36719L98.4549 7.79297C99.7909 7.20703 100.693 5.84766 100.705 4.69922V3.22266H101.408V4.69922ZM107.139 2.57812V8.98828H106.435V6.07031H104.889V8.66016H104.185V2.77734H104.889V5.44922H106.435V2.57812H107.139ZM103.764 9.24609C105.885 9.24609 107.197 9.91406 107.197 11.0625C107.197 12.2109 105.885 12.8789 103.764 12.8789C101.619 12.8789 100.318 12.2109 100.318 11.0625C100.318 9.91406 101.619 9.24609 103.764 9.24609ZM103.764 9.83203C102.099 9.83203 101.045 10.3008 101.056 11.0625C101.045 11.8242 102.099 12.293 103.764 12.293C105.404 12.293 106.459 11.8242 106.471 11.0625C106.459 10.3008 105.404 9.83203 103.764 9.83203ZM113.107 3.28125C115.263 3.29297 116.857 4.40625 116.857 6.09375C116.857 7.78125 115.263 8.89453 113.107 8.88281C110.962 8.89453 109.368 7.78125 109.368 6.09375C109.368 4.40625 110.962 3.29297 113.107 3.28125ZM113.107 3.89062C111.372 3.89062 110.06 4.80469 110.06 6.09375C110.06 7.38281 111.372 8.27344 113.107 8.27344C114.841 8.27344 116.154 7.38281 116.154 6.09375C116.154 4.80469 114.841 3.89062 113.107 3.89062ZM117.876 10.8633V11.4961H108.407V10.8633H117.876ZM127.887 10.957V11.5898H118.419V10.957H122.754V8.87109H119.637V5.77734H125.93V3.99609H119.602V3.375H126.657V6.39844H120.364V8.25H126.903V8.87109H123.493V10.957H127.887ZM140.386 8.84766V9.46875H136.038V12.9258H135.312V9.46875H130.964V8.84766H140.386ZM136.038 4.59375C136.038 6 138.054 7.11328 139.741 7.35938L139.472 7.96875C137.949 7.71094 136.32 6.88477 135.687 5.68359C135.036 6.90234 133.396 7.71094 131.866 7.96875L131.597 7.35938C133.284 7.11328 135.3 6 135.312 4.59375V4.5H131.902V3.87891H135.312V2.55469H136.038V3.87891H139.46V4.5H136.038V4.59375ZM148.932 2.57812V6.85547H150.678V7.48828H148.932V12.9141H148.194V2.57812H148.932ZM146.284 3.70312C146.272 6.57422 144.842 9.23438 141.503 10.8867L141.092 10.3008C143.846 8.94141 145.346 6.82031 145.534 4.32422H141.549V3.70312H146.284ZM161.478 2.57812V6.75H163.259V7.39453H161.478V12.9258H160.74V2.57812H161.478ZM154.751 9.76172C156.779 9.76172 158.138 9.69141 159.744 9.38672L159.826 10.0078C158.173 10.3125 156.814 10.3945 154.751 10.3945H153.943V6.53906H157.857V4.19531H153.919V3.5625H158.595V7.17188H154.681V9.76172H154.751ZM172.977 7.89844V8.53125H168.7V10.7461H167.95V8.53125H163.52V7.89844H172.977ZM171.923 12.0234V12.668H164.774V9.66797H165.501V12.0234H171.923ZM168.231 2.85938C170.434 2.85938 171.852 3.64453 171.852 4.92188C171.852 6.1875 170.434 6.96094 168.231 6.96094C166.04 6.96094 164.61 6.1875 164.622 4.92188C164.61 3.64453 166.04 2.85938 168.231 2.85938ZM168.231 3.48047C166.544 3.48047 165.395 4.04297 165.395 4.92188C165.395 5.77734 166.544 6.33984 168.231 6.33984C169.93 6.33984 171.079 5.77734 171.079 4.92188C171.079 4.04297 169.93 3.48047 168.231 3.48047ZM181.863 7.60547V8.22656H174.785V3.57422H181.758V4.19531H175.512V7.60547H181.863ZM183.012 10.8164V11.4492H173.543V10.8164H183.012ZM192.999 7.42969V8.02734H183.542V7.42969H192.999ZM191.804 8.96484V11.0859H185.453V12.1992H192.156V12.7617H184.726V10.5352H191.066V9.53906H184.703V8.96484H191.804ZM191.769 2.92969V4.96875H185.511V5.98828H191.945V6.55078H184.785V4.44141H191.031V3.48047H184.749V2.92969H191.769ZM199.721 4.83984C199.721 6.29297 200.94 7.54688 202.44 8.03906L202.053 8.625C200.846 8.20312 199.82 7.31836 199.369 6.16406C198.93 7.40625 197.904 8.37305 196.674 8.84766L196.276 8.25C197.776 7.71094 198.971 6.36328 198.983 4.83984V4.10156H196.475V3.48047H202.205V4.10156H199.721V4.83984ZM204.596 2.57812V10.1953H203.858V2.57812H204.596ZM204.936 12.0469V12.668H197.998V9.45703H198.736V12.0469H204.936ZM214.853 2.57812V9.14062H214.15V6.09375H212.58V8.76562H211.888V2.77734H212.58V5.48438H214.15V2.57812H214.853ZM211.431 3.86719V4.48828H206.052V3.86719H208.384V2.64844H209.123V3.86719H211.431ZM208.748 5.08594C210.06 5.09766 210.951 5.77734 210.962 6.85547C210.951 7.92188 210.06 8.60156 208.748 8.60156C207.435 8.60156 206.533 7.92188 206.544 6.85547C206.533 5.77734 207.435 5.09766 208.748 5.08594ZM208.748 5.66016C207.834 5.66016 207.201 6.15234 207.201 6.85547C207.201 7.54688 207.834 8.02734 208.748 8.02734C209.662 8.02734 210.283 7.54688 210.283 6.85547C210.283 6.15234 209.662 5.66016 208.748 5.66016ZM211.478 9.33984C213.623 9.33984 214.912 9.98438 214.912 11.1211C214.912 12.2461 213.623 12.8789 211.478 12.8789C209.31 12.8789 208.033 12.2461 208.033 11.1211C208.033 9.98438 209.31 9.33984 211.478 9.33984ZM211.478 9.9375C209.802 9.92578 208.759 10.3711 208.771 11.1211C208.759 11.8477 209.802 12.293 211.478 12.293C213.142 12.293 214.173 11.8477 214.185 11.1211C214.173 10.3711 213.142 9.92578 211.478 9.9375ZM224.173 2.57812V5.27344H225.766V5.90625H224.173V8.56641H223.434V2.57812H224.173ZM218.431 9.03516V10.2422H223.434V9.03516H224.173V12.7617H217.704V9.03516H218.431ZM218.431 12.1523H223.434V10.8398H218.431V12.1523ZM222.321 3.70312V4.3125H216.157V3.70312H218.876V2.47266H219.602V3.70312H222.321ZM219.239 4.86328C220.716 4.86328 221.7 5.56641 221.7 6.66797C221.7 7.76953 220.716 8.48438 219.239 8.47266C217.739 8.48438 216.766 7.76953 216.766 6.66797C216.766 5.56641 217.739 4.86328 219.239 4.86328ZM219.239 5.44922C218.173 5.4375 217.458 5.94141 217.47 6.66797C217.458 7.39453 218.173 7.89844 219.239 7.89844C220.294 7.89844 220.997 7.39453 221.009 6.66797C220.997 5.94141 220.294 5.4375 219.239 5.44922ZM234.594 2.57812V12.9141H233.867V2.57812H234.594ZM227.563 3.59766V9.55078H227.656C229.274 9.55078 230.903 9.42188 232.684 9.04688L232.789 9.69141C230.949 10.0781 229.332 10.207 227.656 10.207H226.836V3.59766H227.563ZM244.101 2.57812V6.75H245.882V7.37109H244.101V12.9258H243.363V2.57812H244.101ZM237.41 9.66797C239.379 9.66797 240.714 9.59766 242.285 9.30469L242.39 9.94922C240.761 10.2422 239.414 10.3125 237.41 10.3125H236.613V3.59766H241.429V4.21875H237.351V9.66797H237.41ZM247.175 12.0586C246.823 12.0586 246.542 11.7773 246.542 11.4375C246.542 11.0859 246.823 10.8047 247.175 10.8047C247.515 10.8047 247.796 11.0859 247.796 11.4375C247.796 11.7773 247.515 12.0586 247.175 12.0586Z" fill="white"/>
<path d="M267 8L302 8" stroke="white" stroke-width="0.5" stroke-linecap="round"/>
<path d="M1 8L36 8" stroke="white" stroke-width="0.5" stroke-linecap="round"/>
</svg>
