<svg width="48" height="48" viewBox="0 0 48 48" fill="none" xmlns="http://www.w3.org/2000/svg">
<g style="mix-blend-mode:overlay">
<circle cx="24" cy="24" r="24" fill="#D9D9D9"/>
</g>
<path fill-rule="evenodd" clip-rule="evenodd" d="M11.8667 13.8846C15.6492 13.9021 18.2857 14.3822 20.0591 15.2376C21.7388 16.0479 22.6566 17.1975 23.0667 18.7177V33.3432C20.9443 31.7609 17.6824 30.848 11.8841 30.8462C11.8762 30.8253 11.8667 30.7887 11.8667 30.7325V13.8846ZM24.9333 33.3419C27.0597 31.754 30.3202 30.8462 36.1333 30.8462V13.8846C32.3508 13.9021 29.7143 14.3822 27.9409 15.2376C26.2612 16.0479 25.3434 17.1975 24.9333 18.7177V33.3419ZM24 16.2232C23.2915 15.1079 22.2561 14.2087 20.8638 13.5371C18.7232 12.5045 15.761 12.0176 11.8709 12L11.8702 12C11.6243 11.9991 11.3807 12.0473 11.1534 12.1418C10.9261 12.2364 10.7196 12.3754 10.5457 12.551C10.3719 12.7265 10.2341 12.935 10.1405 13.1645C10.0471 13.3934 9.99935 13.6386 10 13.8861V30.7325C10 31.2123 10.1472 31.703 10.4732 32.0896C10.811 32.4901 11.3037 32.7308 11.8667 32.7308C19.2223 32.7308 21.7617 34.2394 23.2709 36.146C23.448 36.3697 23.7162 36.4999 23.9998 36.5C24.2834 36.5001 24.5517 36.3699 24.7288 36.1463C26.2484 34.2285 28.7772 32.7308 36.1333 32.7308C36.6284 32.7308 37.1032 32.5322 37.4533 32.1788C37.8033 31.8253 38 31.346 38 30.8462V13.8859C38.0006 13.6385 37.9529 13.3933 37.8595 13.1645C37.7659 12.935 37.6281 12.7265 37.4543 12.551C37.2804 12.3754 37.0739 12.2364 36.8466 12.1418C36.6193 12.0473 36.3757 11.9991 36.1298 12L36.1291 12C32.239 12.0176 29.2768 12.5045 27.1362 13.5371C25.7439 14.2087 24.7085 15.1079 24 16.2232Z" fill="white"/>
</svg>
