<svg width="303" height="16" viewBox="0 0 303 16" fill="none" xmlns="http://www.w3.org/2000/svg">
<path d="M85.058 2.57812V6.26953H86.6752V6.90234H85.058V10.6641H84.3198V2.57812H85.058ZM85.4448 12.0469V12.668H78.6127V10.1133H79.351V12.0469H85.4448ZM77.019 8.77734C77.8745 8.7832 78.8764 8.77734 79.9252 8.73047V7.88672C78.6889 7.79297 77.8979 7.21289 77.8979 6.31641C77.8979 5.32031 78.8471 4.72266 80.2885 4.73438C81.7299 4.72266 82.6674 5.32031 82.6791 6.31641C82.6674 7.21289 81.8881 7.78711 80.6635 7.88672V8.69531C81.6713 8.64844 82.6909 8.55469 83.6284 8.40234L83.687 8.95312C81.4604 9.36328 78.9409 9.39844 77.1245 9.41016L77.019 8.77734ZM83.3002 3.65625V4.23047H77.2885V3.65625H79.9252V2.54297H80.6635V3.65625H83.3002ZM80.2885 5.27344C79.2573 5.27344 78.601 5.68359 78.601 6.31641C78.601 6.9375 79.2573 7.34766 80.2885 7.34766C81.308 7.34766 81.9643 6.9375 81.976 6.31641C81.9643 5.68359 81.308 5.27344 80.2885 5.27344ZM89.9012 3.22266C90.7859 3.2168 91.5359 3.55078 92.0105 4.11328H94.8465V2.57812H95.5848V8.71875H94.8465V7.16016H92.0223C91.5477 7.72852 90.7918 8.06836 89.9012 8.0625C88.3543 8.07422 87.2293 7.07812 87.241 5.64844C87.2293 4.20703 88.3543 3.21094 89.9012 3.22266ZM89.9012 3.85547C88.7645 3.85547 87.9441 4.61719 87.9441 5.64844C87.9441 6.66797 88.7645 7.42969 89.9012 7.41797C91.0027 7.42969 91.8348 6.66797 91.8348 5.64844C91.8348 4.61719 91.0027 3.85547 89.9012 3.85547ZM92.1863 8.96484C94.3191 8.97656 95.6199 9.69141 95.6199 10.9219C95.6199 12.1641 94.3191 12.8789 92.1863 12.8789C90.0535 12.8789 88.7527 12.1641 88.7645 10.9219C88.7527 9.69141 90.0535 8.97656 92.1863 8.96484ZM92.1863 9.5625C90.534 9.5625 89.4793 10.0898 89.4793 10.9219C89.4793 11.7539 90.534 12.2812 92.1863 12.2812C93.8387 12.2812 94.9051 11.7539 94.9051 10.9219C94.9051 10.0898 93.8387 9.5625 92.1863 9.5625ZM92.3738 4.73438C92.4852 5.00977 92.5496 5.32031 92.5496 5.64844C92.5496 5.9707 92.491 6.26953 92.3855 6.53906H94.8465V4.73438H92.3738ZM102.303 4.42969V5.03906H97.0529V4.42969H99.3029V2.89453H100.053V4.42969H102.303ZM99.6779 5.8125C100.967 5.82422 101.893 6.77344 101.893 8.13281C101.893 9.50391 100.967 10.4648 99.6779 10.4648C98.3888 10.4648 97.463 9.50391 97.463 8.13281C97.463 6.77344 98.3888 5.82422 99.6779 5.8125ZM99.6779 6.44531C98.7755 6.45703 98.1193 7.18359 98.131 8.13281C98.1193 9.09375 98.7755 9.82031 99.6779 9.80859C100.569 9.82031 101.225 9.09375 101.236 8.13281C101.225 7.18359 100.569 6.45703 99.6779 6.44531ZM105.842 2.57812V12.9141H105.139V7.60547H103.58V12.3867H102.889V2.83594H103.58V6.98438H105.139V2.57812H105.842ZM116.556 10.9102V11.543H107.087V10.9102H109.501V8.03906C108.593 7.58203 108.048 6.83789 108.048 5.90625C108.048 4.3125 109.595 3.28125 111.787 3.26953C113.99 3.28125 115.537 4.3125 115.537 5.90625C115.537 6.82617 115.003 7.56445 114.119 8.01562V10.9102H116.556ZM111.787 3.89062C110.029 3.87891 108.751 4.69922 108.751 5.90625C108.751 7.08984 110.029 7.92188 111.787 7.91016C113.544 7.92188 114.834 7.08984 114.834 5.90625C114.834 4.69922 113.544 3.87891 111.787 3.89062ZM110.228 10.9102H113.38V8.29688C112.906 8.4375 112.367 8.50781 111.787 8.50781C111.218 8.50781 110.691 8.4375 110.228 8.30859V10.9102ZM118.587 3.51562L118.528 9.57422H117.743L117.684 3.51562H118.587ZM118.141 12.0586C117.79 12.0586 117.509 11.7773 117.509 11.4375C117.509 11.0859 117.79 10.8047 118.141 10.8047C118.481 10.8047 118.763 11.0859 118.763 11.4375C118.763 11.7773 118.481 12.0586 118.141 12.0586ZM131.086 2.57812V12.9141H130.371V2.57812H131.086ZM128.929 2.87109V12.3633H128.214V7.51172H125.859C125.214 8.71875 124.207 9.79688 122.765 10.6523L122.32 10.1133C124.629 8.74219 125.824 6.74414 125.988 4.54688H122.73V3.91406H126.714C126.714 4.94531 126.533 5.95898 126.14 6.90234H128.214V2.87109H128.929ZM140.78 2.57812V8.50781H140.042V2.57812H140.78ZM140.78 9.09375V12.7617H134.124V9.09375H140.78ZM134.851 9.70312V12.1523H140.054V9.70312H134.851ZM135.226 3.15234C136.784 3.15234 137.897 4.11328 137.897 5.55469C137.897 6.96094 136.784 7.93359 135.226 7.93359C133.667 7.93359 132.542 6.96094 132.554 5.55469C132.542 4.11328 133.667 3.15234 135.226 3.15234ZM135.226 3.78516C134.089 3.78516 133.269 4.52344 133.269 5.55469C133.269 6.5625 134.089 7.30078 135.226 7.30078C136.362 7.30078 137.183 6.5625 137.183 5.55469C137.183 4.52344 136.362 3.78516 135.226 3.78516ZM146.994 2.76562C149.268 2.76562 150.616 3.39844 150.616 4.55859C150.616 5.73047 149.268 6.375 146.994 6.375C144.721 6.375 143.373 5.73047 143.373 4.55859C143.373 3.39844 144.721 2.76562 146.994 2.76562ZM146.994 3.33984C145.225 3.33984 144.135 3.80859 144.135 4.55859C144.135 5.34375 145.225 5.80078 146.994 5.80078C148.776 5.80078 149.866 5.34375 149.866 4.55859C149.866 3.80859 148.776 3.33984 146.994 3.33984ZM151.717 7.14844V7.75781H142.295V7.14844H151.717ZM150.475 8.74219V10.957H144.205V12.1758H150.803V12.7852H143.491V10.3828H149.76V9.32812H143.455V8.74219H150.475ZM158.403 5.49609C158.392 7.37109 159.81 9.26953 161.263 9.94922L160.806 10.5352C159.64 9.94922 158.526 8.66602 158.04 7.13672C157.565 8.74219 156.464 10.1074 155.286 10.7227L154.806 10.1016C156.259 9.41016 157.665 7.44141 157.665 5.49609V3.50391H158.403V5.49609ZM163.325 2.57812V12.9258H162.587V2.57812H163.325ZM168.25 4.54688C168.25 5.97656 169.364 7.23047 170.84 7.74609L170.465 8.33203C169.287 7.89844 168.338 7.02539 167.899 5.91797C167.465 7.14258 166.463 8.08008 165.25 8.54297L164.852 7.96875C166.352 7.41797 167.524 6.09375 167.536 4.55859V3.96094H165.098V3.33984H170.653V3.96094H168.25V4.54688ZM172.903 2.57812V5.37891H174.496V6.02344H172.903V8.80078H172.164V2.57812H172.903ZM172.903 9.38672V12.9141H172.164V10.0078H166.188V9.38672H172.903ZM182.82 2.57812V6.90234H184.601V7.53516H182.82V12.9141H182.082V2.57812H182.82ZM180.98 4.27734V4.89844H174.804V4.27734H177.558V2.68359H178.297V4.27734H180.98ZM177.945 5.84766C179.398 5.84766 180.441 6.80859 180.441 8.19141C180.441 9.57422 179.398 10.5352 177.945 10.5352C176.492 10.5352 175.437 9.57422 175.449 8.19141C175.437 6.80859 176.492 5.84766 177.945 5.84766ZM177.945 6.46875C176.914 6.48047 176.152 7.20703 176.152 8.19141C176.152 9.17578 176.914 9.90234 177.945 9.89062C178.976 9.90234 179.738 9.17578 179.738 8.19141C179.738 7.20703 178.976 6.48047 177.945 6.46875ZM189.456 3.35156C189.456 4.16602 189.292 4.92188 188.976 5.60156H190.851V2.8125H191.566V8.42578H190.851V6.22266H188.624C187.939 7.2832 186.843 8.14453 185.401 8.76562L185.015 8.20312C187.2 7.29492 188.53 5.83008 188.706 3.98438H185.425V3.35156H189.456ZM193.616 2.57812V8.58984H192.913V2.57812H193.616ZM188.401 9.71484C188.401 10.6758 188.935 11.6777 189.96 12.2461C190.997 11.625 191.542 10.5176 191.554 9.71484V8.95312H192.269V9.71484C192.269 10.793 193.112 11.8945 194.425 12.3398L194.062 12.9023C193.013 12.5215 192.251 11.7539 191.905 10.8516C191.595 11.707 190.962 12.5508 189.984 12.9844C188.964 12.5742 188.314 11.7715 188.026 10.875C187.663 11.7422 186.913 12.5098 185.917 12.9023L185.542 12.3398C186.819 11.8594 187.698 10.7109 187.698 9.71484V8.95312H188.401V9.71484ZM196.854 8.77734V10.0898H202.315V8.77734H203.065V12.7617H196.116V8.77734H196.854ZM196.854 12.1523H202.315V10.6992H196.854V12.1523ZM204.307 7.34766V7.98047H194.885V7.34766H204.307ZM199.971 3.22266C199.971 4.58203 202.081 5.70703 203.745 5.94141L203.463 6.52734C201.946 6.29297 200.241 5.45508 199.596 4.24219C198.963 5.4668 197.247 6.29297 195.729 6.52734L195.448 5.94141C197.135 5.69531 199.221 4.61719 199.221 3.22266V2.68359H199.971V3.22266ZM213.357 2.57812V12.9141H212.631V2.57812H213.357ZM206.326 3.59766V9.55078H206.42C208.037 9.55078 209.666 9.42188 211.447 9.04688L211.553 9.69141C209.713 10.0781 208.096 10.207 206.42 10.207H205.599V3.59766H206.326ZM222.864 2.57812V6.75H224.646V7.37109H222.864V12.9258H222.126V2.57812H222.864ZM216.173 9.66797C218.142 9.66797 219.478 9.59766 221.048 9.30469L221.154 9.94922C219.525 10.2422 218.177 10.3125 216.173 10.3125H215.376V3.59766H220.193V4.21875H216.114V9.66797H216.173ZM225.938 12.0586C225.586 12.0586 225.305 11.7773 225.305 11.4375C225.305 11.0859 225.586 10.8047 225.938 10.8047C226.278 10.8047 226.559 11.0859 226.559 11.4375C226.559 11.7773 226.278 12.0586 225.938 12.0586Z" fill="white"/>
<path d="M267 8L302 8" stroke="white" stroke-width="0.5" stroke-linecap="round"/>
<path d="M1 8L36 8" stroke="white" stroke-width="0.5" stroke-linecap="round"/>
</svg>
