<svg width="303" height="16" viewBox="0 0 303 16" fill="none" xmlns="http://www.w3.org/2000/svg">
<path d="M65.5632 9.14062V12.9258H64.8249V9.77344H58.6609V9.14062H65.5632ZM65.5632 2.57812V8.58984H64.8249V2.57812H65.5632ZM58.4851 3.17578V7.01953H58.5554C60.1609 7.01953 61.8015 6.90234 63.571 6.53906L63.6882 7.17188C61.8484 7.53516 60.2195 7.66406 58.5554 7.66406H57.7351V3.17578H58.4851ZM68.3555 3.73828V9.58594C69.5157 9.58008 70.6407 9.52148 71.9766 9.23438L72.0821 9.89062C70.6641 10.1836 69.4923 10.2422 68.2618 10.2422H67.6173V3.73828H68.3555ZM75.8907 2.57812V12.9141H75.1759V2.57812H75.8907ZM73.6759 2.84766V12.3633H72.9727V6.75H70.5118V6.12891H72.9727V2.84766H73.6759ZM85.5854 2.57812V8.50781H84.8471V2.57812H85.5854ZM85.5854 9.09375V12.7617H78.9291V9.09375H85.5854ZM79.6557 9.70312V12.1523H84.8588V9.70312H79.6557ZM80.0307 3.15234C81.5893 3.15234 82.7026 4.11328 82.7026 5.55469C82.7026 6.96094 81.5893 7.93359 80.0307 7.93359C78.4721 7.93359 77.3471 6.96094 77.3588 5.55469C77.3471 4.11328 78.4721 3.15234 80.0307 3.15234ZM80.0307 3.78516C78.894 3.78516 78.0737 4.52344 78.0737 5.55469C78.0737 6.5625 78.894 7.30078 80.0307 7.30078C81.1674 7.30078 81.9877 6.5625 81.9877 5.55469C81.9877 4.52344 81.1674 3.78516 80.0307 3.78516ZM95.5848 2.57812V8.46094H94.8582V2.57812H95.5848ZM88.5184 3.1875V6.9375H88.5887C90.3113 6.9375 91.8934 6.82031 93.6043 6.45703L93.7215 7.07812C91.9285 7.44141 90.3465 7.57031 88.5887 7.57031H87.7684V3.1875H88.5184ZM95.5848 8.96484V12.7617H88.9285V8.96484H95.5848ZM89.6668 9.5625V12.1406H94.8699V9.5625H89.6668ZM100.498 3.35156C102.127 3.35156 103.252 4.32422 103.264 5.74219C103.252 7.17188 102.127 8.13281 100.498 8.13281C98.881 8.13281 97.7326 7.17188 97.7326 5.74219C97.7326 4.32422 98.881 3.35156 100.498 3.35156ZM100.498 4.00781C99.3146 4.00781 98.4474 4.73438 98.4591 5.74219C98.4474 6.75 99.3146 7.48828 100.498 7.47656C101.682 7.48828 102.537 6.75 102.537 5.74219C102.537 4.73438 101.682 4.00781 100.498 4.00781ZM105.526 2.57812V12.9258H104.787V2.57812H105.526ZM97.1701 9.9375C99.1037 9.94922 101.752 9.9375 104.072 9.58594L104.131 10.1484C101.74 10.5938 99.1623 10.5938 97.2873 10.5938L97.1701 9.9375ZM113.009 5.97656C113.009 7.69922 114.192 9.41016 115.634 10.1133L115.188 10.6875C114.052 10.1191 113.091 8.94727 112.669 7.54688C112.224 9.05859 111.198 10.2949 110.032 10.875L109.587 10.3125C111.052 9.60938 112.294 7.83984 112.294 5.97656V5.01562H109.856V4.40625H112.282V2.74219H113.02V4.40625H115.423V5.01562H113.009V5.97656ZM117.614 2.57812V6.89062H119.395V7.53516H117.614V12.9141H116.876V2.57812H117.614ZM123.629 3.76172V7.21875H120.758V9.71484C121.953 9.72656 123.096 9.67383 124.508 9.43359L124.567 10.0547C123.09 10.3008 121.942 10.3477 120.688 10.3477H120.031V6.59766H122.926V4.38281H120.008V3.76172H123.629ZM128.469 2.57812V12.9141H127.754V2.57812H128.469ZM126.43 2.78906V12.3633H125.715V8.51953H124.25V7.89844H125.715V5.94141H124.25V5.33203H125.715V2.78906H126.43ZM138.175 2.57812V8.10938H137.437V2.57812H138.175ZM132.281 8.66016V10.0195H137.449V8.66016H138.175V12.7617H131.554V8.66016H132.281ZM132.281 12.1523H137.449V10.6289H132.281V12.1523ZM132.621 3.09375C134.179 3.09375 135.293 4.04297 135.293 5.46094C135.293 6.85547 134.179 7.81641 132.621 7.80469C131.062 7.81641 129.937 6.85547 129.949 5.46094C129.937 4.04297 131.062 3.09375 132.621 3.09375ZM132.621 3.72656C131.484 3.72656 130.664 4.45312 130.664 5.46094C130.664 6.45703 131.484 7.18359 132.621 7.18359C133.757 7.18359 134.578 6.45703 134.578 5.46094C134.578 4.45312 133.757 3.72656 132.621 3.72656ZM148.151 2.57812V12.9141H147.425V2.57812H148.151ZM141.12 3.59766V9.55078H141.214C142.831 9.55078 144.46 9.42188 146.241 9.04688L146.347 9.69141C144.507 10.0781 142.89 10.207 141.214 10.207H140.394V3.59766H141.12ZM157.659 2.57812V6.75H159.44V7.37109H157.659V12.9258H156.92V2.57812H157.659ZM150.967 9.66797C152.936 9.66797 154.272 9.59766 155.842 9.30469L155.948 9.94922C154.319 10.2422 152.971 10.3125 150.967 10.3125H150.17V3.59766H154.987V4.21875H150.909V9.66797H150.967ZM160.732 12.0586C160.381 12.0586 160.099 11.7773 160.099 11.4375C160.099 11.0859 160.381 10.8047 160.732 10.8047C161.072 10.8047 161.353 11.0859 161.353 11.4375C161.353 11.7773 161.072 12.0586 160.732 12.0586ZM173.301 2.57812V7.96875H172.575V2.57812H173.301ZM173.313 8.49609V10.8516H167.407V12.1758H173.711V12.7852H166.692V10.2891H172.586V9.09375H166.657V8.49609H173.313ZM168.438 4.06641C168.438 5.47266 169.657 6.67969 171.157 7.13672L170.782 7.72266C169.563 7.3125 168.532 6.45703 168.086 5.33203C167.647 6.55078 166.604 7.5 165.344 7.94531L164.993 7.34766C166.493 6.83203 167.688 5.54297 167.7 4.06641V3.83203H165.192V3.19922H170.922V3.83203H168.438V4.06641ZM184.273 7.92188V8.54297H179.961V10.7695H179.234V8.54297H174.816V7.92188H184.273ZM183.031 3.08203V6.62109H176.058V3.08203H183.031ZM176.785 3.69141V6.02344H182.304V3.69141H176.785ZM183.219 12.0469V12.668H176.058V9.71484H176.797V12.0469H183.219ZM189.538 2.76562C191.812 2.76562 193.159 3.39844 193.159 4.55859C193.159 5.73047 191.812 6.375 189.538 6.375C187.265 6.375 185.917 5.73047 185.917 4.55859C185.917 3.39844 187.265 2.76562 189.538 2.76562ZM189.538 3.33984C187.769 3.33984 186.679 3.80859 186.679 4.55859C186.679 5.34375 187.769 5.80078 189.538 5.80078C191.319 5.80078 192.409 5.34375 192.409 4.55859C192.409 3.80859 191.319 3.33984 189.538 3.33984ZM194.261 7.14844V7.75781H184.839V7.14844H194.261ZM193.019 8.74219V10.957H186.749V12.1758H193.347V12.7852H186.034V10.3828H192.304V9.32812H185.999V8.74219H193.019ZM205.435 2.57812V5.01562H207.041V5.64844H205.435V8.42578H204.697V2.57812H205.435ZM205.435 9.02344V12.7617H198.955V9.02344H205.435ZM199.67 9.62109V12.1406H204.709V9.62109H199.67ZM198.662 3.10547V6.91406H198.721C200.244 6.91406 201.803 6.79688 203.537 6.44531L203.631 7.07812C201.849 7.44141 200.303 7.54688 198.721 7.54688H197.912V3.10547H198.662ZM212.622 3.71484C212.622 4.3125 212.564 4.89844 212.446 5.47266H215.177V2.55469H215.904V12.9023H215.177V8.84766H212.118V8.21484H215.177V6.08203H212.282C211.685 8.00391 210.296 9.70312 207.841 10.8984L207.443 10.2891C210.284 8.92969 211.72 6.80273 211.896 4.32422H207.876V3.71484H212.622ZM222.516 4.03125C222.516 5.51953 224.579 6.70312 226.231 6.96094L225.95 7.54688C224.42 7.26562 222.733 6.38672 222.118 5.08594C221.491 6.38672 219.797 7.26562 218.297 7.54688L218.004 6.96094C219.645 6.70312 221.708 5.51953 221.708 4.03125V3.86719H218.309V3.25781H225.903V3.86719H222.516V4.03125ZM226.829 8.51953V9.15234H222.458V12.9023H221.743V9.15234H217.407V8.51953H226.829ZM230.406 5.625C230.406 7.25391 231.32 9.04688 232.68 9.83203L232.234 10.4062C231.215 9.79102 230.435 8.63086 230.066 7.32422C229.691 8.74805 228.859 9.97852 227.816 10.6172L227.324 10.0664C228.719 9.26953 229.691 7.42969 229.703 5.64844V3.57422H230.406V5.625ZM236.242 2.57812V12.9141H235.527V2.57812H236.242ZM234.109 2.8125V12.375H233.406V6.99609H231.519V6.35156H233.406V2.8125H234.109ZM246.898 10.9102V11.543H237.429V10.9102H239.843V8.03906C238.935 7.58203 238.39 6.83789 238.39 5.90625C238.39 4.3125 239.937 3.28125 242.128 3.26953C244.331 3.28125 245.878 4.3125 245.878 5.90625C245.878 6.82617 245.345 7.56445 244.46 8.01562V10.9102H246.898ZM242.128 3.89062C240.37 3.87891 239.093 4.69922 239.093 5.90625C239.093 7.08984 240.37 7.92188 242.128 7.91016C243.886 7.92188 245.175 7.08984 245.175 5.90625C245.175 4.69922 243.886 3.87891 242.128 3.89062ZM240.57 10.9102H243.722V8.29688C243.247 8.4375 242.708 8.50781 242.128 8.50781C241.56 8.50781 241.033 8.4375 240.57 8.30859V10.9102ZM248.46 12.0586C248.108 12.0586 247.827 11.7773 247.827 11.4375C247.827 11.0859 248.108 10.8047 248.46 10.8047C248.799 10.8047 249.081 11.0859 249.081 11.4375C249.081 11.7773 248.799 12.0586 248.46 12.0586Z" fill="white"/>
<path d="M267 8L302 8" stroke="white" stroke-width="0.5" stroke-linecap="round"/>
<path d="M1 8L36 8" stroke="white" stroke-width="0.5" stroke-linecap="round"/>
</svg>
