<svg width="31" height="34" viewBox="0 0 31 34" fill="none" xmlns="http://www.w3.org/2000/svg">
<path fill-rule="evenodd" clip-rule="evenodd" d="M19.9625 6.04299C19.7394 5.95733 19.4914 5.9638 19.2731 6.06098C19.0548 6.15816 18.884 6.33808 18.7983 6.56117L14.9633 16.5491C14.7679 17.058 14.197 17.3121 13.6881 17.1167C13.1792 16.9213 12.9251 16.3504 13.1205 15.8415L16.0531 8.2037C16.1388 7.98061 16.1323 7.73263 16.0352 7.51431C15.938 7.29599 15.758 7.12522 15.535 7.03956C15.3119 6.95391 15.0639 6.96038 14.8456 7.05756C14.6273 7.15474 14.4565 7.33466 14.3708 7.55775L10.7614 16.9582C10.566 17.4671 9.9951 17.7212 9.48621 17.5258C9.47749 17.5224 9.46885 17.519 9.46028 17.5154C9.11015 17.3948 8.84276 17.0812 8.80004 16.6886L8.54155 14.3135C8.45312 14.0449 8.26872 13.8174 8.0225 13.6753C7.75761 13.5226 7.44288 13.4812 7.14753 13.5605C6.85219 13.6398 6.60043 13.8331 6.44763 14.098C6.29484 14.3629 6.25353 14.6776 6.33279 14.973C6.34591 15.0218 6.35525 15.0717 6.36073 15.122L7.15904 22.4572C7.37831 23.4464 7.84169 24.4174 8.52813 25.295C9.21287 26.1704 10.0986 26.9257 11.1239 27.5005L13.4091 28.378C15.0346 29.0021 16.8414 28.9549 18.4321 28.2468C20.0229 27.5388 21.2671 26.2278 21.8913 24.6023L25.7263 14.6144C25.8119 14.3913 25.8054 14.1433 25.7083 13.925C25.6111 13.7067 25.4312 13.5359 25.2081 13.4502C24.985 13.3646 24.737 13.3711 24.5187 13.4682C24.3004 13.5654 24.1296 13.7453 24.0439 13.9684L22.0137 19.2562C21.8183 19.7651 21.2473 20.0192 20.7384 19.8238C20.2296 19.6284 19.9754 19.0575 20.1708 18.5486L23.1035 10.9108C23.1891 10.6877 23.1826 10.4397 23.0855 10.2214C22.9883 10.003 22.8084 9.83228 22.5853 9.74662C22.3622 9.66096 22.1142 9.66743 21.8959 9.76461C21.6776 9.86179 21.5068 10.0417 21.4211 10.2648L18.4885 17.9026C18.2931 18.4115 17.7222 18.6657 17.2133 18.4703C16.7044 18.2749 16.4503 17.7039 16.6457 17.1951L20.4807 7.20712C20.5663 6.98403 20.5598 6.73605 20.4627 6.51773C20.3655 6.29942 20.1856 6.12864 19.9625 6.04299ZM22.3917 7.71564C22.5905 7.05756 22.5475 6.34728 22.2661 5.71499C21.956 5.01837 21.3819 4.47347 20.67 4.20015C19.9582 3.92683 19.1669 3.94748 18.4703 4.25756C17.838 4.53901 17.3307 5.03799 17.038 5.66005C16.8017 5.46566 16.5336 5.30849 16.2425 5.19673C15.5307 4.92341 14.7394 4.94406 14.0428 5.25414C13.3462 5.56422 12.8013 6.13833 12.528 6.85017L10.1362 13.0794C9.86468 12.6214 9.47816 12.2361 9.00883 11.9654C8.29044 11.551 7.43687 11.439 6.63587 11.654C5.83488 11.8689 5.15209 12.3933 4.7377 13.1117C4.33719 13.806 4.21912 14.6266 4.40575 15.404L5.20227 22.7228C5.20591 22.7562 5.21124 22.7894 5.21826 22.8222C5.49999 24.1408 6.10442 25.4004 6.97325 26.5112C7.84193 27.6218 8.95603 28.5599 10.2288 29.2614C10.2683 29.2832 10.3093 29.3023 10.3514 29.3184L12.7015 30.2208C14.8158 31.0326 17.1659 30.9712 19.2349 30.0503C21.3039 29.1293 22.9223 27.4241 23.7341 25.3099L27.5691 15.322C27.8424 14.6101 27.8218 13.8189 27.5117 13.1222C27.2016 12.4256 26.6275 11.8807 25.9157 11.6074C25.6246 11.4956 25.3202 11.433 25.0145 11.4193C25.2133 10.7612 25.1703 10.0509 24.8889 9.41861C24.5788 8.722 24.0047 8.1771 23.2928 7.90378C23.0018 7.79202 22.6974 7.72941 22.3917 7.71564Z" fill="white"/>
</svg>
