<svg width="31" height="35" viewBox="0 0 31 35" fill="none" xmlns="http://www.w3.org/2000/svg">
<path fill-rule="evenodd" clip-rule="evenodd" d="M20.1609 6.23493C19.9425 6.14655 19.6997 6.15323 19.4859 6.25349C19.2722 6.35376 19.105 6.5394 19.0211 6.76957L15.2662 17.0748C15.0749 17.5998 14.5159 17.862 14.0176 17.6604C13.5193 17.4588 13.2705 16.8698 13.4618 16.3447L16.3332 8.46427C16.4171 8.23409 16.4108 7.97824 16.3156 7.75299C16.2205 7.52774 16.0443 7.35154 15.8259 7.26316C15.6074 7.17478 15.3646 7.18146 15.1509 7.28173C14.9371 7.38199 14.7699 7.56763 14.686 7.79781L11.152 17.4968C10.9607 18.0219 10.4017 18.2841 9.9034 18.0825C9.89487 18.079 9.8864 18.0754 9.87801 18.0718C9.53519 17.9473 9.27339 17.6237 9.23155 17.2187L8.97846 14.7681C8.89188 14.491 8.71133 14.2563 8.47025 14.1097C8.21089 13.9521 7.90273 13.9094 7.61355 13.9912C7.32437 14.073 7.07787 14.2725 6.92826 14.5458C6.77866 14.8191 6.73821 15.1438 6.81582 15.4485C6.82867 15.499 6.83781 15.5504 6.84317 15.6023L7.62482 23.1706C7.83951 24.1911 8.29322 25.193 8.96532 26.0984C9.63577 27.0017 10.503 27.781 11.5069 28.374L13.7444 29.2793C15.3359 29.9233 17.1051 29.8746 18.6626 29.1441C20.2201 28.4135 21.4384 27.0609 22.0495 25.3838L25.8044 15.0786C25.8883 14.8484 25.8819 14.5925 25.7868 14.3673C25.6916 14.142 25.5155 13.9658 25.297 13.8775C25.0786 13.7891 24.8358 13.7958 24.622 13.896C24.4083 13.9963 24.2411 14.1819 24.1572 14.4121L22.1693 19.8678C21.978 20.3928 21.419 20.6551 20.9207 20.4535C20.4225 20.2519 20.1736 19.6628 20.3649 19.1377L23.2363 11.2573C23.3202 11.0271 23.3139 10.7713 23.2187 10.546C23.1236 10.3208 22.9474 10.1446 22.729 10.0562C22.5105 9.96782 22.2677 9.9745 22.054 10.0748C21.8402 10.175 21.673 10.3607 21.5892 10.5908L18.7177 18.4713C18.5264 18.9963 17.9674 19.2585 17.4692 19.0569C16.9709 18.8553 16.7221 18.2663 16.9134 17.7412L20.6683 7.43604C20.7522 7.20586 20.7458 6.95001 20.6507 6.72476C20.5555 6.4995 20.3794 6.32331 20.1609 6.23493ZM22.5394 7.96072C22.7341 7.28173 22.692 6.54889 22.4164 5.89651C22.1128 5.17777 21.5507 4.61556 20.8537 4.33356C20.1568 4.05156 19.382 4.07287 18.7 4.3928C18.0809 4.68319 17.5841 5.19802 17.2976 5.83983C17.0661 5.63927 16.8037 5.4771 16.5187 5.36179C15.8217 5.07979 15.047 5.1011 14.3649 5.42103C13.6828 5.74096 13.1493 6.3333 12.8817 7.06775L10.5398 13.4948C10.274 13.0223 9.89552 12.6248 9.43599 12.3455C8.7326 11.9179 7.89684 11.8023 7.11257 12.0241C6.3283 12.2459 5.65977 12.7869 5.25403 13.5281C4.86188 14.2445 4.74628 15.0912 4.92901 15.8933L5.7089 23.4445C5.71246 23.479 5.71769 23.5132 5.72456 23.5471C6.00041 24.9076 6.59222 26.2072 7.44291 27.3532C8.29346 28.4991 9.38429 29.4671 10.6305 30.1908C10.6692 30.2133 10.7093 30.233 10.7506 30.2497L13.0516 31.1807C15.1217 32.0183 17.4227 31.955 19.4486 31.0048C21.4744 30.0545 23.059 28.2952 23.8538 26.1138L27.6088 15.8086C27.8764 15.0742 27.8561 14.2578 27.5525 13.539C27.2489 12.8203 26.6868 12.2581 25.9898 11.9761C25.7048 11.8608 25.4068 11.7962 25.1075 11.782C25.3022 11.103 25.2601 10.3702 24.9845 9.71778C24.6809 8.99904 24.1188 8.43683 23.4218 8.15483C23.1368 8.03951 22.8388 7.97492 22.5394 7.96072Z" fill="#A1B5D9"/>
</svg>
