<svg width="33" height="10" viewBox="0 0 33 10" fill="none" xmlns="http://www.w3.org/2000/svg">
<g style="mix-blend-mode:overlay">
<path d="M0.0117188 0.101562H1.51562V4.39453H6.4375V0.101562H7.94141V10H6.4375V5.67969H1.51562V10H0.0117188V0.101562ZM9.96484 0.101562H16.1719V1.40039H11.4688V4.39453H15.8438V5.67969H11.4688V8.70117H16.2266V10H9.96484V0.101562ZM18.0176 0.101562H19.5215V8.70117H23.9922V10H18.0176V0.101562ZM25.5371 0.101562H29.0645C29.8073 0.101562 30.4362 0.24056 30.9512 0.518555C31.4661 0.791992 31.8512 1.17025 32.1064 1.65332C32.3662 2.13639 32.4961 2.6901 32.4961 3.31445C32.4961 3.93424 32.3662 4.48568 32.1064 4.96875C31.8512 5.45182 31.4661 5.83236 30.9512 6.11035C30.4362 6.38835 29.8073 6.52734 29.0645 6.52734H27.041V10H25.5371V0.101562ZM28.9141 5.24219C29.6113 5.24219 30.1286 5.06901 30.4658 4.72266C30.8076 4.37174 30.9785 3.90234 30.9785 3.31445C30.9785 2.72201 30.8099 2.2526 30.4727 1.90625C30.1354 1.5599 29.6159 1.38672 28.9141 1.38672H27.041V5.24219H28.9141Z" fill="#bccdea"/>
</g>
</svg>
