<svg width="27" height="31" viewBox="0 0 27 31" fill="none" xmlns="http://www.w3.org/2000/svg">
<path d="M12.0522 9.83403C12.0091 8.60864 11.9348 7.35933 11.8342 6.21076M20.8786 9.81308C21.1266 8.53063 20.635 6.46561 20.9876 5.20423C22.5664 4.5185 24.2782 4.32744 26 4.19783M11.0249 16.1306C14.3233 15.8902 17.5324 16.3806 20.1781 18.2883M7.33285 3.20287C8.30737 3.04781 9.73275 1.40185 10.9623 1.65023C12.3135 1.92321 13.8054 3.08453 14.2313 3.20287M1 23.6394C1 20.1137 1.32988 16.5349 3.38889 17.4781C4.29215 17.8922 6.36269 21.5494 6.73948 21.4507C9.49195 20.7303 15.6016 18.9057 16.3194 21.4507C16.9879 23.821 11.9704 23.4695 11.9704 23.6394C11.9704 23.804 13.3239 24.3903 13.2086 25.3419C13.0977 26.2566 9.90424 27.1255 10.9085 27.1255C16.2061 27.1255 9.09235 29.183 6.73948 29.6257C4.3866 30.0685 2.76501 29.4876 1 28.9898" stroke="white" stroke-width="2" stroke-linecap="round" stroke-linejoin="round"/>
</svg>
