<svg width="27" height="33" viewBox="0 0 27 33" fill="none" xmlns="http://www.w3.org/2000/svg">
<path d="M12.0522 9.88839C12.0091 8.56162 11.9348 7.20897 11.8342 5.96538M20.8786 9.86571C21.1266 8.47716 20.635 6.24132 20.9876 4.87559C22.5664 4.13313 24.2782 3.92627 26 3.78593M11.0249 16.7059C14.3233 16.4456 17.5324 16.9766 20.1781 19.0421M7.33285 2.70866C8.30737 2.54078 9.73275 0.758653 10.9623 1.02758C12.3135 1.32314 13.8054 2.58054 14.2313 2.70866M1 24.8358C1 21.0184 1.32988 17.1436 3.38889 18.1648C4.29215 18.6131 6.36269 22.5729 6.73948 22.466C9.49195 21.686 15.6016 19.7105 16.3194 22.466C16.9878 25.0324 11.9704 24.6519 11.9704 24.8358C11.9704 25.0141 13.3239 25.6489 13.2086 26.6792C13.0977 27.6695 9.90424 28.6103 10.9085 28.6103C16.2061 28.6103 9.09235 30.838 6.73948 31.3174C4.3866 31.7967 2.76501 31.1678 1 30.6289" stroke="white" stroke-width="2" stroke-linecap="round" stroke-linejoin="round"/>
</svg>
