<svg width="23" height="28" viewBox="0 0 23 28" fill="none" xmlns="http://www.w3.org/2000/svg">
<path d="M10.3 8.36688C10.2643 7.26723 10.2026 6.14613 10.1193 5.11542" stroke="#A1B5D9" stroke-width="2" stroke-linecap="round" stroke-linejoin="round"/>
<path d="M17.6158 8.34812C17.8214 7.19727 17.4139 5.34416 17.7061 4.21222" stroke="#A1B5D9" stroke-width="2" stroke-linecap="round" stroke-linejoin="round"/>
<path d="M9.44846 14.0174C12.1824 13.8016 14.8423 14.2417 17.0352 15.9537" stroke="#A1B5D9" stroke-width="2" stroke-linecap="round" stroke-linejoin="round"/>
<path d="M6.38831 2.41617C7.19605 2.27703 8.37749 0.799967 9.39662 1.02286C10.5166 1.26783 11.7531 2.30998 12.1061 2.41617" stroke="#A1B5D9" stroke-width="2" stroke-linecap="round" stroke-linejoin="round"/>
<path d="M17.706 4.21226C19.0146 3.59689 20.4336 3.42534 21.8607 3.30902" stroke="#A1B5D9" stroke-width="2" stroke-linecap="round" stroke-linejoin="round"/>
<path d="M1.13925 20.7556C1.13925 17.5916 1.41268 14.3801 3.1193 15.2265C3.86798 15.5981 5.58416 18.8801 5.89647 18.7915C8.17788 18.145 13.2419 16.5076 13.8368 18.7915C14.3909 20.9185 10.2322 20.6031 10.2322 20.7556C10.2322 20.9033 11.354 21.4295 11.2584 22.2834C11.1665 23.1042 8.5196 23.8839 9.35199 23.8839C13.7429 23.8839 7.84666 25.7303 5.89647 26.1276C3.94627 26.5249 2.60219 26.0037 1.13925 25.557" stroke="#A1B5D9" stroke-width="2" stroke-linecap="round" stroke-linejoin="round"/>
</svg>
