<svg width="14" height="14" viewBox="0 0 14 14" fill="none" xmlns="http://www.w3.org/2000/svg">
<path d="M4.50003 9.5L9.50003 4.5M2.73003 5.61L1.67003 6.67C0.919464 7.42056 0.497803 8.43854 0.497803 9.5C0.497803 10.5615 0.919464 11.5794 1.67003 12.33C2.42059 13.0806 3.43857 13.5022 4.50003 13.5022C5.56148 13.5022 6.57946 13.0806 7.33003 12.33L8.39003 11.27M11.27 8.39L12.33 7.33C13.0806 6.57943 13.5023 5.56145 13.5023 4.5C13.5023 3.43854 13.0806 2.42056 12.33 1.67C11.5795 0.919434 10.5615 0.497772 9.50003 0.497772C8.43857 0.497772 7.42059 0.919434 6.67003 1.67L5.61003 2.73" stroke="white" stroke-linecap="round" stroke-linejoin="round"/>
</svg>
