<svg width="31" height="31" viewBox="0 0 31 31" fill="none" xmlns="http://www.w3.org/2000/svg">
<circle cx="15.5" cy="15.5" r="15.5" fill="#646C7B"/>
<g style="mix-blend-mode:overlay">
<path d="M13.5039 18.0977H16.0234L17.0977 19.4844C17.7715 18.6934 18.1523 17.502 18.1523 15.9297C18.1523 12.9023 16.7266 11.2617 14.5391 11.2617C12.3516 11.2617 10.9062 12.9023 10.9062 15.9297C10.9062 18.957 12.3516 20.5977 14.5391 20.5977C14.8223 20.5977 15.0957 20.5684 15.3594 20.5195L13.5039 18.0977ZM21.1406 15.9297C21.1406 18.4492 20.2812 20.3926 18.8945 21.6133L20.9062 24.1719H18.1523L17.0195 22.7461C16.2578 23.0488 15.418 23.1953 14.5391 23.1953C10.7695 23.1953 7.91797 20.5195 7.91797 15.9297C7.91797 11.3203 10.7695 8.66406 14.5391 8.66406C18.2695 8.66406 21.1406 11.3203 21.1406 15.9297Z" fill="white"/>
</g>
</svg>
