<svg width="303" height="16" viewBox="0 0 303 16" fill="none" xmlns="http://www.w3.org/2000/svg">
<path d="M53.0352 2.57812V12.9141H52.3086V2.57812H53.0352ZM49.9883 3.71484C49.9766 6.63281 48.5117 9.26953 45.1133 10.9102L44.7031 10.3008C47.5391 8.95898 49.0566 6.84375 49.25 4.32422H45.1602V3.71484H49.9883ZM62.5072 2.57812V6.75H64.2884V7.37109H62.5072V12.9258H61.7689V2.57812H62.5072ZM55.8158 9.66797C57.7845 9.66797 59.1205 9.59766 60.6908 9.30469L60.7962 9.94922C59.1673 10.2422 57.8197 10.3125 55.8158 10.3125H55.0189V3.59766H59.8353V4.21875H55.7572V9.66797H55.8158ZM73.0573 2.57812V12.9258H72.3308V2.57812H73.0573ZM66.0261 9.76172C67.7253 9.76172 69.3073 9.69141 71.2409 9.375L71.3113 10.0078C69.3542 10.3125 67.7722 10.3945 66.0261 10.3945H65.1706V6.52734H69.1902V4.19531H65.1589V3.5625H69.9284V7.14844H65.9323V9.76172H66.0261ZM82.9161 5.80078V6.42188H75.8848V2.95312H76.6114V5.80078H82.9161ZM84.0177 7.92188V8.53125H74.5606V7.92188H84.0177ZM82.9747 12.0234V12.6562H75.838V9.65625H76.5645V12.0234H82.9747ZM95.6141 2.57812V10.2539H94.8758V2.57812H95.6141ZM95.9539 12.0469V12.668H89.0164V9.51562H89.7547V12.0469H95.9539ZM90.7859 4.98047C90.7859 6.43359 92.0047 7.67578 93.493 8.15625L93.118 8.75391C91.9051 8.33203 90.8855 7.45898 90.4344 6.31641C89.9891 7.54688 88.9754 8.49023 87.7508 8.92969L87.3758 8.35547C88.8641 7.83984 90.0594 6.51562 90.0594 4.98047V4.64062H87.5867V4.03125H90.0594V2.625H90.7977V4.03125H93.2469V4.64062H90.7859V4.98047ZM105.262 3.26953V4.17188C105.25 5.15625 105.25 6.22266 104.957 7.72266H106.551V8.35547H102.192V12.9258H101.465V8.35547H97.1291V7.72266H104.195C104.524 6.23438 104.524 5.12695 104.524 4.17188V3.89062H98.3478V3.26953H105.262ZM116.562 7.00781V7.62891H107.14V7.00781H116.562ZM115.437 5.46094V6.08203H108.429V2.97656H115.32V3.58594H109.167V5.46094H115.437ZM115.32 8.64844V10.957H109.05V12.1641H115.648V12.7734H108.335V10.3711H114.605V9.24609H108.3V8.64844H115.32ZM121.85 2.76562C124.124 2.76562 125.472 3.39844 125.472 4.55859C125.472 5.73047 124.124 6.375 121.85 6.375C119.577 6.375 118.229 5.73047 118.229 4.55859C118.229 3.39844 119.577 2.76562 121.85 2.76562ZM121.85 3.33984C120.081 3.33984 118.991 3.80859 118.991 4.55859C118.991 5.34375 120.081 5.80078 121.85 5.80078C123.632 5.80078 124.722 5.34375 124.722 4.55859C124.722 3.80859 123.632 3.33984 121.85 3.33984ZM126.573 7.14844V7.75781H117.151V7.14844H126.573ZM125.331 8.74219V10.957H119.061V12.1758H125.659V12.7852H118.347V10.3828H124.616V9.32812H118.311V8.74219H125.331ZM133.107 3.09375C134.642 3.09375 135.744 3.92578 135.744 5.17969C135.744 6.43359 134.642 7.28906 133.107 7.27734C131.572 7.28906 130.482 6.43359 130.494 5.17969C130.482 3.92578 131.572 3.09375 133.107 3.09375ZM133.107 3.71484C132.005 3.70312 131.197 4.33594 131.209 5.17969C131.197 6.04688 132.005 6.65625 133.107 6.65625C134.232 6.65625 135.041 6.04688 135.041 5.17969C135.041 4.33594 134.232 3.70312 133.107 3.71484ZM138.17 2.57812V12.9258H137.443V2.57812H138.17ZM129.662 8.23828C131.63 8.25 134.314 8.20312 136.634 7.86328L136.693 8.4375C135.656 8.61914 134.584 8.73047 133.541 8.78906V12.5859H132.802V8.82422C131.707 8.88281 130.664 8.88867 129.767 8.89453L129.662 8.23828ZM144.935 4.42969V5.03906H139.685V4.42969H141.935V2.89453H142.685V4.42969H144.935ZM142.31 5.8125C143.599 5.82422 144.524 6.77344 144.524 8.13281C144.524 9.50391 143.599 10.4648 142.31 10.4648C141.02 10.4648 140.095 9.50391 140.095 8.13281C140.095 6.77344 141.02 5.82422 142.31 5.8125ZM142.31 6.44531C141.407 6.45703 140.751 7.18359 140.763 8.13281C140.751 9.09375 141.407 9.82031 142.31 9.80859C143.2 9.82031 143.856 9.09375 143.868 8.13281C143.856 7.18359 143.2 6.45703 142.31 6.44531ZM148.474 2.57812V12.9141H147.77V7.60547H146.212V12.3867H145.52V2.83594H146.212V6.98438H147.77V2.57812H148.474ZM155.007 3.39844C156.42 3.39844 157.427 4.63477 157.55 6.59766H160.047V2.57812H160.773V12.9258H160.047V7.20703H157.562C157.474 9.25195 156.455 10.5469 155.007 10.5469C153.496 10.5469 152.441 9.15234 152.453 6.97266C152.441 4.79297 153.496 3.39844 155.007 3.39844ZM155.007 4.05469C153.906 4.05469 153.156 5.25 153.156 6.97266C153.156 8.70703 153.906 9.89062 155.007 9.89062C156.097 9.89062 156.859 8.70703 156.859 6.97266C156.859 5.25 156.097 4.05469 155.007 4.05469ZM165.804 5.49609C165.804 7.33594 167.151 9.22266 168.581 9.89062L168.136 10.5C166.97 9.88477 165.903 8.57812 165.452 7.06641C164.995 8.66016 163.94 10.0488 162.78 10.6875L162.3 10.1016C163.73 9.375 165.054 7.38281 165.065 5.49609V3.50391H165.804V5.49609ZM170.784 2.57812V12.9258H170.058V6.80859H167.456V6.1875H170.058V2.57812H170.784ZM183.295 2.57812V7.96875H182.568V2.57812H183.295ZM183.306 8.49609V10.8516H177.4V12.1758H183.705V12.7852H176.685V10.2891H182.58V9.09375H176.65V8.49609H183.306ZM178.431 4.06641C178.431 5.47266 179.65 6.67969 181.15 7.13672L180.775 7.72266C179.556 7.3125 178.525 6.45703 178.08 5.33203C177.64 6.55078 176.597 7.5 175.338 7.94531L174.986 7.34766C176.486 6.83203 177.681 5.54297 177.693 4.06641V3.83203H175.185V3.19922H180.916V3.83203H178.431V4.06641ZM194.267 7.92188V8.54297H189.954V10.7695H189.228V8.54297H184.81V7.92188H194.267ZM193.025 3.08203V6.62109H186.052V3.08203H193.025ZM186.778 3.69141V6.02344H192.298V3.69141H186.778ZM193.212 12.0469V12.668H186.052V9.71484H186.79V12.0469H193.212ZM199.532 2.76562C201.805 2.76562 203.153 3.39844 203.153 4.55859C203.153 5.73047 201.805 6.375 199.532 6.375C197.258 6.375 195.911 5.73047 195.911 4.55859C195.911 3.39844 197.258 2.76562 199.532 2.76562ZM199.532 3.33984C197.762 3.33984 196.672 3.80859 196.672 4.55859C196.672 5.34375 197.762 5.80078 199.532 5.80078C201.313 5.80078 202.403 5.34375 202.403 4.55859C202.403 3.80859 201.313 3.33984 199.532 3.33984ZM204.254 7.14844V7.75781H194.833V7.14844H204.254ZM203.012 8.74219V10.957H196.743V12.1758H203.34V12.7852H196.028V10.3828H202.297V9.32812H195.993V8.74219H203.012ZM215.429 2.57812V5.01562H217.034V5.64844H215.429V8.42578H214.691V2.57812H215.429ZM215.429 9.02344V12.7617H208.948V9.02344H215.429ZM209.663 9.62109V12.1406H214.702V9.62109H209.663ZM208.655 3.10547V6.91406H208.714C210.238 6.91406 211.796 6.79688 213.53 6.44531L213.624 7.07812C211.843 7.44141 210.296 7.54688 208.714 7.54688H207.905V3.10547H208.655ZM222.616 3.71484C222.616 4.3125 222.557 4.89844 222.44 5.47266H225.17V2.55469H225.897V12.9023H225.17V8.84766H222.112V8.21484H225.17V6.08203H222.276C221.678 8.00391 220.29 9.70312 217.835 10.8984L217.436 10.2891C220.278 8.92969 221.713 6.80273 221.889 4.32422H217.87V3.71484H222.616ZM232.51 4.03125C232.51 5.51953 234.572 6.70312 236.225 6.96094L235.943 7.54688C234.414 7.26562 232.726 6.38672 232.111 5.08594C231.484 6.38672 229.791 7.26562 228.291 7.54688L227.998 6.96094C229.639 6.70312 231.701 5.51953 231.701 4.03125V3.86719H228.303V3.25781H235.896V3.86719H232.51V4.03125ZM236.822 8.51953V9.15234H232.451V12.9023H231.736V9.15234H227.4V8.51953H236.822ZM240.4 5.625C240.4 7.25391 241.314 9.04688 242.673 9.83203L242.228 10.4062C241.208 9.79102 240.429 8.63086 240.06 7.32422C239.685 8.74805 238.853 9.97852 237.81 10.6172L237.318 10.0664C238.712 9.26953 239.685 7.42969 239.697 5.64844V3.57422H240.4V5.625ZM246.236 2.57812V12.9141H245.521V2.57812H246.236ZM244.103 2.8125V12.375H243.4V6.99609H241.513V6.35156H243.4V2.8125H244.103ZM256.891 10.9102V11.543H247.423V10.9102H249.837V8.03906C248.928 7.58203 248.383 6.83789 248.383 5.90625C248.383 4.3125 249.93 3.28125 252.122 3.26953C254.325 3.28125 255.872 4.3125 255.872 5.90625C255.872 6.82617 255.339 7.56445 254.454 8.01562V10.9102H256.891ZM252.122 3.89062C250.364 3.87891 249.087 4.69922 249.087 5.90625C249.087 7.08984 250.364 7.92188 252.122 7.91016C253.88 7.92188 255.169 7.08984 255.169 5.90625C255.169 4.69922 253.88 3.87891 252.122 3.89062ZM250.563 10.9102H253.715V8.29688C253.241 8.4375 252.702 8.50781 252.122 8.50781C251.553 8.50781 251.026 8.4375 250.563 8.30859V10.9102ZM258.453 12.0586C258.102 12.0586 257.82 11.7773 257.82 11.4375C257.82 11.0859 258.102 10.8047 258.453 10.8047C258.793 10.8047 259.074 11.0859 259.074 11.4375C259.074 11.7773 258.793 12.0586 258.453 12.0586Z" fill="white"/>
<path d="M267 8L302 8" stroke="white" stroke-width="0.5" stroke-linecap="round"/>
<path d="M1 8L36 8" stroke="white" stroke-width="0.5" stroke-linecap="round"/>
</svg>
