<svg width="303" height="16" viewBox="0 0 303 16" fill="none" xmlns="http://www.w3.org/2000/svg">
<path d="M70.557 9.14062V12.9258H69.8187V9.77344H63.6547V9.14062H70.557ZM70.557 2.57812V8.58984H69.8187V2.57812H70.557ZM63.4789 3.17578V7.01953H63.5492C65.1547 7.01953 66.7953 6.90234 68.5648 6.53906L68.682 7.17188C66.8422 7.53516 65.2133 7.66406 63.5492 7.66406H62.7289V3.17578H63.4789ZM73.3494 3.73828V9.58594C74.5095 9.58008 75.6345 9.52148 76.9705 9.23438L77.0759 9.89062C75.658 10.1836 74.4861 10.2422 73.2556 10.2422H72.6111V3.73828H73.3494ZM80.8845 2.57812V12.9141H80.1697V2.57812H80.8845ZM78.6697 2.84766V12.3633H77.9666V6.75H75.5056V6.12891H77.9666V2.84766H78.6697ZM90.5792 2.57812V8.50781H89.8409V2.57812H90.5792ZM90.5792 9.09375V12.7617H83.923V9.09375H90.5792ZM84.6495 9.70312V12.1523H89.8527V9.70312H84.6495ZM85.0245 3.15234C86.5831 3.15234 87.6964 4.11328 87.6964 5.55469C87.6964 6.96094 86.5831 7.93359 85.0245 7.93359C83.4659 7.93359 82.3409 6.96094 82.3527 5.55469C82.3409 4.11328 83.4659 3.15234 85.0245 3.15234ZM85.0245 3.78516C83.8878 3.78516 83.0675 4.52344 83.0675 5.55469C83.0675 6.5625 83.8878 7.30078 85.0245 7.30078C86.1612 7.30078 86.9816 6.5625 86.9816 5.55469C86.9816 4.52344 86.1612 3.78516 85.0245 3.78516ZM100.579 2.57812V8.46094H99.852V2.57812H100.579ZM93.5122 3.1875V6.9375H93.5825C95.3052 6.9375 96.8872 6.82031 98.5981 6.45703L98.7153 7.07812C96.9223 7.44141 95.3403 7.57031 93.5825 7.57031H92.7622V3.1875H93.5122ZM100.579 8.96484V12.7617H93.9223V8.96484H100.579ZM94.6606 9.5625V12.1406H99.8638V9.5625H94.6606ZM105.492 3.35156C107.121 3.35156 108.246 4.32422 108.258 5.74219C108.246 7.17188 107.121 8.13281 105.492 8.13281C103.875 8.13281 102.726 7.17188 102.726 5.74219C102.726 4.32422 103.875 3.35156 105.492 3.35156ZM105.492 4.00781C104.308 4.00781 103.441 4.73438 103.453 5.74219C103.441 6.75 104.308 7.48828 105.492 7.47656C106.676 7.48828 107.531 6.75 107.531 5.74219C107.531 4.73438 106.676 4.00781 105.492 4.00781ZM110.519 2.57812V12.9258H109.781V2.57812H110.519ZM102.164 9.9375C104.098 9.94922 106.746 9.9375 109.066 9.58594L109.125 10.1484C106.734 10.5938 104.156 10.5938 102.281 10.5938L102.164 9.9375ZM123.03 12.0469V12.668H115.893V9.71484H116.643V12.0469H123.03ZM124.108 8.17969V8.8125H114.651V8.17969H118.999V6.32812H119.725V8.17969H124.108ZM119.725 3.36328C119.725 4.875 121.764 6.14062 123.405 6.42188L123.112 7.00781C121.635 6.71484 119.989 5.79492 119.362 4.48828C118.741 5.80664 117.106 6.70898 115.612 7.00781L115.307 6.42188C116.96 6.12891 118.987 4.88672 118.987 3.36328V2.83594H119.725V3.36328ZM132.619 2.57812V6.85547H134.365V7.48828H132.619V12.9141H131.881V2.57812H132.619ZM129.971 3.70312C129.959 6.57422 128.529 9.23438 125.189 10.8867L124.779 10.3008C127.533 8.94141 129.033 6.82031 129.221 4.32422H125.236V3.70312H129.971ZM135.95 7.61719C137.779 7.61719 139.161 7.55859 140.861 7.27734L140.931 7.91016C139.208 8.17969 137.814 8.25 135.95 8.25H135.154V5.35547H139.068V3.83203H135.13V3.21094H139.794V5.95312H135.892V7.61719H135.95ZM142.724 2.57812V5.28516H144.329V5.91797H142.724V8.87109H141.986V2.57812H142.724ZM142.724 9.43359V12.9023H141.986V10.0547H136.009V9.43359H142.724ZM153.169 2.57812V12.9258H152.43V2.57812H153.169ZM147.708 3.39844C149.231 3.39844 150.321 4.79297 150.321 6.97266C150.321 9.15234 149.231 10.5469 147.708 10.5469C146.173 10.5469 145.094 9.15234 145.094 6.97266C145.094 4.79297 146.173 3.39844 147.708 3.39844ZM147.708 4.05469C146.594 4.05469 145.809 5.25 145.809 6.97266C145.809 8.70703 146.594 9.89062 147.708 9.89062C148.821 9.89062 149.594 8.70703 149.594 6.97266C149.594 5.25 148.821 4.05469 147.708 4.05469ZM165.187 2.57812V6.85547H166.933V7.48828H165.187V12.9141H164.449V2.57812H165.187ZM162.538 3.70312C162.527 6.57422 161.097 9.23438 157.757 10.8867L157.347 10.3008C160.101 8.94141 161.601 6.82031 161.788 4.32422H157.804V3.70312H162.538ZM170.639 4.57031C170.639 5.97656 171.753 7.19531 173.229 7.69922L172.866 8.27344C171.682 7.86914 170.733 7.01953 170.3 5.92969C169.86 7.16016 168.846 8.10938 167.616 8.56641L167.241 7.96875C168.741 7.45312 169.913 6.12891 169.925 4.58203V3.98438H167.487V3.36328H173.042V3.98438H170.639V4.57031ZM175.292 2.57812V5.29688H176.885V5.91797H175.292V8.84766H174.553V2.57812H175.292ZM171.999 9.15234C174.108 9.15234 175.374 9.83203 175.374 11.0039C175.374 12.1992 174.108 12.8789 171.999 12.8789C169.889 12.8789 168.6 12.1992 168.612 11.0039C168.6 9.83203 169.889 9.15234 171.999 9.15234ZM171.999 9.76172C170.37 9.76172 169.327 10.2422 169.339 11.0039C169.327 11.8008 170.37 12.2812 171.999 12.2812C173.628 12.2812 174.659 11.8008 174.659 11.0039C174.659 10.2422 173.628 9.76172 171.999 9.76172ZM184.978 3.50391V5.50781H187.568V2.57812H188.306V10.1367H187.568V6.12891H184.978V8.23828H180.29V3.50391H184.978ZM181.017 4.11328V7.62891H184.251V4.11328H181.017ZM188.611 12.0469V12.668H181.744V9.44531H182.482V12.0469H188.611ZM198.317 2.57812V12.9258H197.579V7.00781H195.165V6.38672H197.579V2.57812H198.317ZM193.278 5.80078C193.278 7.48828 194.638 9.35156 196.079 10.0078L195.622 10.6055C194.468 10.0254 193.384 8.72461 192.927 7.26562C192.458 8.82422 191.35 10.2012 190.184 10.8281L189.727 10.2422C191.145 9.55078 192.528 7.60547 192.54 5.80078V4.28906H190.114V3.65625H195.716V4.28906H193.278V5.80078ZM210.851 2.57812V8.17969H210.125V5.77734H207.875V5.14453H210.125V2.57812H210.851ZM205.015 8.69531V10.0898H210.125V8.69531H210.851V12.7617H204.289V8.69531H205.015ZM205.015 12.1523H210.125V10.6992H205.015V12.1523ZM205.835 4.3125C205.835 5.69531 206.972 6.99609 208.437 7.5L208.05 8.08594C206.878 7.65234 205.923 6.75586 205.484 5.64844C205.044 6.89062 204.025 7.88086 202.8 8.34375L202.414 7.75781C203.89 7.21875 205.097 5.84766 205.097 4.32422V3.86719H202.671V3.24609H208.226V3.86719H205.835V4.3125ZM220.886 2.57812V9.16406H220.147V7.74609H218.202V7.11328H220.147V5.77734H218.202V5.15625H220.147V2.57812H220.886ZM218.249 3.72656V4.34766H212.354V3.72656H214.968V2.47266H215.694V3.72656H218.249ZM215.331 4.91016C216.702 4.91016 217.651 5.67188 217.651 6.80859C217.651 7.96875 216.702 8.73047 215.331 8.73047C213.936 8.73047 212.999 7.96875 213.011 6.80859C212.999 5.67188 213.936 4.91016 215.331 4.91016ZM215.331 5.49609C214.347 5.49609 213.69 6.03516 213.702 6.80859C213.69 7.60547 214.347 8.14453 215.331 8.14453C216.292 8.14453 216.96 7.60547 216.96 6.80859C216.96 6.03516 216.292 5.49609 215.331 5.49609ZM215.835 9.71484C215.823 10.6348 216.368 11.6191 217.393 12.1406C218.395 11.5605 218.964 10.4941 218.975 9.71484V9.32812H219.69V9.71484C219.69 10.7461 220.534 11.8008 221.858 12.2109L221.483 12.7852C220.434 12.416 219.679 11.6777 219.327 10.8047C219.022 11.6309 218.378 12.4512 217.405 12.8672C216.386 12.4805 215.741 11.7012 215.46 10.8281C215.091 11.666 214.335 12.4102 213.327 12.7852L212.964 12.2109C214.241 11.7773 215.108 10.6758 215.12 9.71484V9.32812H215.835V9.71484ZM223.643 3.73828V9.58594C224.803 9.58008 225.928 9.52148 227.264 9.23438L227.369 9.89062C225.951 10.1836 224.78 10.2422 223.549 10.2422H222.905V3.73828H223.643ZM231.178 2.57812V12.9141H230.463V2.57812H231.178ZM228.963 2.84766V12.3633H228.26V6.75H225.799V6.12891H228.26V2.84766H228.963ZM241.845 10.9102V11.543H232.377V10.9102H234.791V8.03906C233.882 7.58203 233.337 6.83789 233.337 5.90625C233.337 4.3125 234.884 3.28125 237.076 3.26953C239.279 3.28125 240.826 4.3125 240.826 5.90625C240.826 6.82617 240.293 7.56445 239.408 8.01562V10.9102H241.845ZM237.076 3.89062C235.318 3.87891 234.041 4.69922 234.041 5.90625C234.041 7.08984 235.318 7.92188 237.076 7.91016C238.834 7.92188 240.123 7.08984 240.123 5.90625C240.123 4.69922 238.834 3.87891 237.076 3.89062ZM235.517 10.9102H238.67V8.29688C238.195 8.4375 237.656 8.50781 237.076 8.50781C236.507 8.50781 235.98 8.4375 235.517 8.30859V10.9102ZM243.876 3.51562L243.817 9.57422H243.032L242.974 3.51562H243.876ZM243.431 12.0586C243.079 12.0586 242.798 11.7773 242.798 11.4375C242.798 11.0859 243.079 10.8047 243.431 10.8047C243.77 10.8047 244.052 11.0859 244.052 11.4375C244.052 11.7773 243.77 12.0586 243.431 12.0586Z" fill="white"/>
<path d="M267 8L302 8" stroke="white" stroke-width="0.5" stroke-linecap="round"/>
<path d="M1 8L36 8" stroke="white" stroke-width="0.5" stroke-linecap="round"/>
</svg>
